<?xml version="1.0" standalone="no"?><!DOCTYPE svg PUBLIC "-//W3C//DTD SVG 1.1//EN" "http://www.w3.org/Graphics/SVG/1.1/DTD/svg11.dtd"><svg t="1727374138707" class="icon" viewBox="0 0 1024 1024" version="1.1" xmlns="http://www.w3.org/2000/svg" p-id="2561" xmlns:xlink="http://www.w3.org/1999/xlink" width="200" height="200"><path d="M316.458667 412.458667m234.666666 0l0 0q234.666667 0 234.666667 234.666666l0 14.208q0 234.666667-234.666667 234.666667l0 0q-234.666667 0-234.666666-234.666667l0-14.208q0-234.666667 234.666666-234.666666Z" fill="#14A3FF" p-id="2562"></path><path d="M202.794667 778.24a38.4 38.4 0 0 1 61.44-46.122667C323.285333 810.794667 413.909333 857.6 512 857.6c144.384 0 269.354667-101.845333 304.170667-244.906667a38.4 38.4 0 1 1 74.624 18.090667C847.744 807.808 692.394667 934.4 512 934.4c-122.624 0-235.776-58.453333-309.205333-156.16z m691.754666-325.290667a38.4 38.4 0 1 1-75.349333 14.933334C789.504 318.037333 661.418667 209.066667 512 209.066667 339.072 209.066667 198.4 354.005333 198.4 533.333333c0 17.237333 1.28 34.304 3.84 51.072a38.4 38.4 0 1 1-75.904 11.562667A414.592 414.592 0 0 1 121.6 533.333333C121.6 312.064 296.106667 132.266667 512 132.266667c186.624 0 345.856 135.424 382.549333 320.682666z" fill="#333843" p-id="2563"></path><path d="M599.978667 268.032a38.4 38.4 0 1 1-25.301334 72.533333A189.738667 189.738667 0 0 0 512 329.898667a38.4 38.4 0 1 1 0-76.8c30.250667 0 59.861333 5.077333 87.978667 14.890666zM785.066667 533.333333a38.4 38.4 0 1 1-76.8 0c0-48.213333-16.213333-93.653333-45.226667-129.92a38.4 38.4 0 0 1 59.861333-48.042666A283.648 283.648 0 0 1 785.066667 533.333333z" fill="#333843" p-id="2564"></path><path d="M140.117333 560.341333A487.253333 487.253333 0 0 0 83.2 610.602667c-24.234667 26.752-36.010667 55.637333-30.421333 85.290666 19.328 102.4 235.349333 123.093333 489.941333 72.106667 254.208-50.901333 446.549333-153.216 427.349333-254.976-4.181333-22.186667-17.621333-40.746667-37.76-55.082667-16.256-11.562667-37.077333-20.565333-62.037333-27.349333a36.949333 36.949333 0 1 0-19.413333 71.296c17.194667 4.693333 30.250667 10.325333 38.570666 16.256 5.632 4.010667 7.68 6.826667 8.021334 8.576 7.296 38.869333-157.013333 126.293333-369.237334 168.789333-211.925333 42.453333-395.562667 24.874667-402.773333-13.312-0.64-3.370667 2.389333-10.752 12.544-21.973333 8.021333-8.832 33.408-31.36 45.141333-39.68a36.949333 36.949333 0 1 0-42.965333-60.16z" fill="#333843" p-id="2565"></path></svg>